<svg width="30" height="30" viewBox="0 0 30 30" fill="none" xmlns="http://www.w3.org/2000/svg">
<path d="M14.45 11.0877V21.2502H25.4C27.7125 21.0877 28.75 19.6627 28.75 17.9127C28.75 16.0627 27.35 14.5752 25.475 14.5752C25 14.5752 24.6 14.6752 24.1875 14.8502C23.8875 11.9252 21.4 9.6377 18.3375 9.6377C16.875 9.6377 15.4875 10.1877 14.45 11.0877ZM13.35 12.3627C12.975 12.1377 12.575 11.9627 12.1375 11.8752V21.2502H13.875V11.6752C13.6875 11.8752 13.5125 12.1252 13.35 12.3627ZM10.4125 11.6877V21.2502H11.5625V11.7252C11.325 11.6877 11.0875 11.6752 10.8375 11.6752C10.6875 11.6752 10.55 11.6752 10.4125 11.6877ZM8.125 12.5002V21.2502H9.2625V11.9252C8.85 12.0627 8.4625 12.2627 8.125 12.5002ZM6.0375 15.6252C5.9625 15.6252 5.8875 15.5502 5.8 15.5127V21.2502H6.95V13.5752C6.4875 14.1752 6.175 14.8877 6.0375 15.6252ZM3.4875 15.2752V21.1377C3.75 21.2127 4.05 21.2502 4.375 21.2502H4.65V15.1752C4.55 15.1627 4.45 15.1502 4.375 15.1502C4.05 15.1502 3.75 15.2002 3.4875 15.2752ZM1.25 18.2002C1.25 19.1377 1.675 19.9627 2.3375 20.5252V15.8877C1.675 16.4377 1.25 17.2752 1.25 18.2002Z" fill="#D9D9D9"/>
</svg>
